<svg width="378" height="378" viewBox="0 0 378 378" fill="none" xmlns="http://www.w3.org/2000/svg">
<g clip-path="url(#clip0_500_10)">
<path d="M307.486 161.602C299.125 163.827 290.258 162.122 281.632 162.797C273.007 163.474 263.392 167.916 261.673 176.397C260.37 182.822 264.04 189.052 266.764 195.015C269.488 200.979 271.076 208.76 266.544 213.498C260.092 220.247 248.308 214.5 239.611 217.898C230.666 221.397 228.28 233.224 230.14 242.649C232.596 255.106 239.922 266.111 248.492 275.48C254.4 281.939 261.011 287.851 265.8 295.177C270.591 302.504 273.402 311.767 270.689 320.087C267.978 328.411 258.343 334.636 250.182 331.47C239.947 327.496 238.797 313.858 237.884 302.917C237.074 293.208 234.929 283.164 228.757 275.622C222.587 268.083 211.469 263.898 202.717 268.18C196.771 271.091 193.086 277.074 188.508 281.857C183.932 286.639 176.819 290.493 170.882 287.565C161.094 282.738 162.907 264.089 152.124 262.408C139.998 260.519 136.57 283.748 124.301 283.4C118.016 283.222 113.935 276.406 113.198 270.161C112.463 263.918 113.791 257.488 112.405 251.356C110.729 243.925 104.843 237.598 97.5526 235.384C90.2639 233.173 81.8539 235.162 76.3279 240.408C72.2738 244.256 69.733 248.986 64.1582 248.586C57.7775 248.129 54.4573 239.915 58.2648 234.776C62.0723 229.636 69.0036 228.053 75.371 227.436C81.7384 226.819 88.4921 226.694 93.9116 223.295C99.3288 219.896 102.326 211.675 97.95 207.008C89.7398 198.252 73.0798 214.088 63.8707 206.389C58.0583 201.529 61.6261 191.332 68.14 187.462C74.654 183.592 82.6686 183.634 90.0618 181.978C97.455 180.322 105.396 175.524 105.945 167.967C106.571 159.299 97.1175 152.275 97.8658 143.616C98.5141 136.094 106.353 131.559 113.394 128.828C120.434 126.097 128.515 123.056 131.179 115.991C133.792 109.071 129.732 101.214 124.088 96.4337C118.442 91.6559 111.371 88.934 105.166 84.9066C98.9603 80.8814 93.2657 74.7339 93.1147 67.3407C92.9549 59.6634 98.9314 53.0341 105.774 49.5529C111.653 46.5602 119.577 45.6011 124.266 50.2457C129.534 55.4652 127.725 64.1128 127.381 71.5236C126.943 80.8771 129.911 90.8434 137.147 96.7845C144.385 102.726 156.283 103.187 162.621 96.2938C167.223 91.2918 168.593 83.3014 174.579 80.0778C180.802 76.7253 188.424 80.4286 194.089 84.6579C199.753 88.8872 205.756 93.9981 212.812 93.5318C220.36 93.0368 225.951 86.2009 228.973 79.2651C231.996 72.3271 233.515 64.6387 237.875 58.4557C242.233 52.2704 250.967 48.0787 257.441 51.995C263.085 55.4073 264.266 63.5131 261.831 69.6429C259.397 75.7727 254.291 80.3774 249.351 84.7466C244.754 88.8156 236.941 95.3625 231.566 103.206C225.613 111.894 238.324 121.155 244.686 112.763C247.1 109.579 249.138 106.076 250.526 102.745C253.459 95.7058 256.516 90.2281 264.104 89.4621C270.82 88.7828 277.765 92.6258 280.755 98.6757C283.746 104.728 282.58 112.578 277.962 117.5C273.946 121.783 268.058 123.619 262.83 126.29C257.601 128.959 252.406 133.419 252.257 139.289C252.082 146.174 259.386 151.389 266.273 151.42C273.16 151.451 279.472 147.779 285.202 143.958C290.932 140.137 296.727 135.948 303.503 134.707C310.277 133.466 318.382 136.239 320.718 142.719C323.653 150.859 315.847 159.375 307.486 161.602Z" fill="#FFF7F7"/>
<path d="M185.672 307.499C185.362 311.069 181.34 314.19 176.756 314.519C172.175 314.846 167.543 312.416 166.101 309.018C164.661 305.621 166.459 301.582 170.223 299.524C171.891 298.61 173.884 298.107 175.917 298.006C181.955 298.341 186.049 303.163 185.672 307.499Z" fill="#FFF7F7"/>
<path d="M178.576 328.697C178.351 331.282 175.44 333.541 172.122 333.779C168.805 334.016 165.452 332.257 164.408 329.797C163.366 327.338 164.667 324.414 167.392 322.924C168.6 322.263 170.042 321.899 171.514 321.826C175.885 322.068 178.849 325.558 178.576 328.697Z" fill="#FFF7F7"/>
<path d="M314.986 216.076C313.245 218.385 309.427 218.882 307.362 216.86C305.437 214.97 305.561 211.607 307.191 209.458C307.875 208.556 308.761 207.849 309.758 207.322C311.285 206.514 313.193 206.817 314.365 208.087C314.371 208.094 314.378 208.101 314.384 208.108C316.338 210.239 316.724 213.769 314.986 216.076Z" fill="#FFF7F7"/>
<path d="M291.957 231.053C291.366 235.236 287.776 238.795 283.598 239.41C279.417 240.025 274.986 237.685 273.081 233.912C272.408 232.585 272.028 231.075 272.211 229.599C272.393 228.14 273.105 226.792 273.984 225.614C275.59 223.465 277.828 221.814 280.322 220.833C282.18 220.102 284.256 220.051 286.105 220.802C286.117 220.807 286.128 220.811 286.14 220.816C290.045 222.425 292.547 226.868 291.957 231.053Z" fill="#FFF7F7"/>
<path d="M288.717 205.148C288.335 204.036 288.648 202.777 289.274 201.78C289.406 201.569 289.552 201.367 289.707 201.173C291.1 199.431 293.861 199.683 294.839 201.687C294.845 201.7 294.852 201.712 294.857 201.725C295.679 203.45 295.106 205.785 293.461 206.758C291.816 207.73 289.336 206.955 288.717 205.148Z" fill="#FFF7F7"/>
<path d="M84.5248 139.346C84.5067 139.362 84.4885 139.377 84.4705 139.393C80.9979 142.389 75.689 141.914 72.7832 138.366C72.4511 137.96 72.1379 137.537 71.8455 137.095C69.2101 133.112 68.4931 127.64 70.5178 123.279C72.5425 118.92 77.4603 116.094 81.9516 117.193C86.2232 118.237 89.3869 122.611 89.74 127.21C90.0951 131.813 87.9039 136.405 84.5248 139.346Z" fill="#FFF7F7"/>
<path d="M204.004 47.271C203.508 48.4658 201.891 48.6222 200.603 48.4792C199.779 48.3876 198.933 48.2411 198.233 47.795C197.532 47.348 197.008 46.5354 197.13 45.7145C197.153 45.5602 197.197 45.4126 197.259 45.2729C197.538 44.6454 198.172 44.2516 198.858 44.2197C200.521 44.1422 202.039 44.2929 202.696 44.604C203.686 45.0707 204.425 46.2607 204.004 47.271Z" fill="#FFF7F7"/>
<path d="M196.383 62.0856C196.117 63.6063 194.894 64.8207 193.502 65.4869C192.107 66.1528 190.547 66.3594 189.015 66.557C186.624 66.8655 184.206 67.1741 181.813 66.8877C179.419 66.599 177.019 65.6489 175.452 63.8173C175.444 63.8077 175.435 63.7979 175.427 63.7883C174.062 62.1682 174.431 59.7174 176.156 58.4867C176.875 57.9733 177.634 57.5154 178.425 57.1214C182.337 55.1699 187.003 54.7859 191.182 56.0668C193.957 56.9193 196.883 59.2239 196.383 62.0856Z" fill="#FFF7F7"/>
</g>
<defs>
<clipPath id="clip0_500_10">
<rect width="378" height="378" fill="white"/>
</clipPath>
</defs>
</svg>
